<?xml version="1.0" encoding="UTF-8"?><svg xmlns="http://www.w3.org/2000/svg" xmlns:xlink="http://www.w3.org/1999/xlink" fill-opacity="1" color-rendering="auto" color-interpolation="auto" text-rendering="auto" stroke="black" stroke-linecap="square" width="574" stroke-miterlimit="10" shape-rendering="auto" stroke-opacity="1" fill="black" stroke-dasharray="none" font-weight="normal" stroke-width="1" height="420" font-family="'Dialog'" font-style="normal" stroke-linejoin="miter" font-size="12px" stroke-dashoffset="0" image-rendering="auto">
  <!--Generated by ySVG 2.5-->
  <defs id="genericDefs"/>
  <g>
    <defs id="defs1">
      <clipPath clipPathUnits="userSpaceOnUse" id="clipPath1">
        <path d="M0 0 L574 0 L574 420 L0 420 L0 0 Z"/>
      </clipPath>
      <clipPath clipPathUnits="userSpaceOnUse" id="clipPath2">
        <path d="M1369 293 L1943 293 L1943 713 L1369 713 L1369 293 Z"/>
      </clipPath>
      <clipPath clipPathUnits="userSpaceOnUse" id="clipPath3">
        <path d="M-163.3548 -285.8319 L321.3786 21.5921 L96.4342 376.2751 L-388.2992 68.8511 L-163.3548 -285.8319 Z"/>
      </clipPath>
      <clipPath clipPathUnits="userSpaceOnUse" id="clipPath4">
        <path d="M-147.3559 451.6743 L-147.3559 -122.3257 L272.6441 -122.3257 L272.6441 451.6743 L-147.3559 451.6743 Z"/>
      </clipPath>
      <clipPath clipPathUnits="userSpaceOnUse" id="clipPath5">
        <path d="M-284.8269 558.0899 L-284.8269 -15.9101 L135.173 -15.9101 L135.173 558.0899 L-284.8269 558.0899 Z"/>
      </clipPath>
      <clipPath clipPathUnits="userSpaceOnUse" id="clipPath6">
        <path d="M-401.208 -15.2442 L83.5254 -322.6682 L308.4698 32.0148 L-176.2636 339.4388 L-401.208 -15.2442 Z"/>
      </clipPath>
      <clipPath clipPathUnits="userSpaceOnUse" id="clipPath7">
        <path d="M47.3693 -299.576 L532.1027 7.8481 L307.1583 362.531 L-177.5751 55.107 L47.3693 -299.576 Z"/>
      </clipPath>
      <clipPath clipPathUnits="userSpaceOnUse" id="clipPath8">
        <path d="M-150.9653 71.5704 L-150.9653 -502.4297 L269.0347 -502.4297 L269.0347 71.5704 L-150.9653 71.5704 Z"/>
      </clipPath>
    </defs>
    <g fill="white" text-rendering="geometricPrecision" shape-rendering="geometricPrecision" transform="translate(-1369,-293)" stroke="white">
      <rect x="1369" width="574" height="420" y="293" clip-path="url(#clipPath2)" stroke="none"/>
    </g>
    <g fill="rgb(204,255,204)" text-rendering="geometricPrecision" shape-rendering="geometricPrecision" transform="matrix(1,0,0,1,-1369,-293)" stroke="rgb(204,255,204)">
      <ellipse rx="60" ry="30" clip-path="url(#clipPath2)" cx="1444.5728" cy="385.2528" stroke="none"/>
    </g>
    <g text-rendering="geometricPrecision" stroke-miterlimit="1.45" shape-rendering="geometricPrecision" transform="matrix(1,0,0,1,-1369,-293)" stroke-linecap="butt">
      <ellipse rx="60" fill="none" ry="30" clip-path="url(#clipPath2)" cx="1444.5728" cy="385.2528"/>
      <text x="1415.6538" xml:space="preserve" y="389.4071" clip-path="url(#clipPath2)" font-family="sans-serif" stroke="none">Initialized</text>
    </g>
    <g fill="rgb(204,255,204)" text-rendering="geometricPrecision" shape-rendering="geometricPrecision" transform="matrix(1,0,0,1,-1369,-293)" stroke="rgb(204,255,204)">
      <ellipse rx="60" ry="30" clip-path="url(#clipPath2)" cx="1824.4656" cy="385.2528" stroke="none"/>
    </g>
    <g text-rendering="geometricPrecision" stroke-miterlimit="1.45" shape-rendering="geometricPrecision" transform="matrix(1,0,0,1,-1369,-293)" stroke-linecap="butt">
      <ellipse rx="60" fill="none" ry="30" clip-path="url(#clipPath2)" cx="1824.4656" cy="385.2528"/>
      <text x="1790.3787" xml:space="preserve" y="389.4071" clip-path="url(#clipPath2)" font-family="sans-serif" stroke="none">Connecting</text>
    </g>
    <g fill="rgb(204,255,204)" text-rendering="geometricPrecision" shape-rendering="geometricPrecision" transform="matrix(1,0,0,1,-1369,-293)" stroke="rgb(204,255,204)">
      <ellipse rx="60" ry="30" clip-path="url(#clipPath2)" cx="1634.5192" cy="505.7192" stroke="none"/>
    </g>
    <g text-rendering="geometricPrecision" stroke-miterlimit="1.45" shape-rendering="geometricPrecision" transform="matrix(1,0,0,1,-1369,-293)" stroke-linecap="butt">
      <ellipse rx="60" fill="none" ry="30" clip-path="url(#clipPath2)" cx="1634.5192" cy="505.7192"/>
      <text x="1624.0573" xml:space="preserve" y="509.8735" clip-path="url(#clipPath2)" font-family="sans-serif" stroke="none">Fail</text>
    </g>
    <g fill="rgb(204,255,204)" text-rendering="geometricPrecision" shape-rendering="geometricPrecision" transform="matrix(1,0,0,1,-1369,-293)" stroke="rgb(204,255,204)">
      <ellipse rx="60" ry="30" clip-path="url(#clipPath2)" cx="1824.4656" cy="626.1856" stroke="none"/>
    </g>
    <g text-rendering="geometricPrecision" stroke-miterlimit="1.45" shape-rendering="geometricPrecision" transform="matrix(1,0,0,1,-1369,-293)" stroke-linecap="butt">
      <ellipse rx="60" fill="none" ry="30" clip-path="url(#clipPath2)" cx="1824.4656" cy="626.1856"/>
      <text x="1792.157" xml:space="preserve" y="630.3399" clip-path="url(#clipPath2)" font-family="sans-serif" stroke="none">Connected</text>
    </g>
    <g fill="rgb(204,255,204)" text-rendering="geometricPrecision" shape-rendering="geometricPrecision" transform="matrix(1,0,0,1,-1369,-293)" stroke="rgb(204,255,204)">
      <ellipse rx="60" ry="30" clip-path="url(#clipPath2)" cx="1444.5728" cy="626.1856" stroke="none"/>
    </g>
    <g text-rendering="geometricPrecision" stroke-miterlimit="1.45" shape-rendering="geometricPrecision" transform="matrix(1,0,0,1,-1369,-293)" stroke-linecap="butt">
      <ellipse rx="60" fill="none" ry="30" clip-path="url(#clipPath2)" cx="1444.5728" cy="626.1856"/>
      <text x="1428.228" xml:space="preserve" y="630.3399" clip-path="url(#clipPath2)" font-family="sans-serif" stroke="none">Close</text>
      <path fill="none" d="M1504.5728 385.2528 L1756.4656 385.2528" clip-path="url(#clipPath2)"/>
      <path d="M1764.4656 385.2528 L1752.4656 380.2528 L1755.4656 385.2528 L1752.4656 390.2528 Z" clip-path="url(#clipPath2)" stroke="none"/>
      <text x="1558.8307" xml:space="preserve" y="362.4515" clip-path="url(#clipPath2)" font-family="sans-serif" stroke="none">Accept Client Connection</text>
      <text x="1527.2399" xml:space="preserve" y="376.4203" clip-path="url(#clipPath2)" font-family="sans-serif" stroke="none">and create connection to the target</text>
      <path fill="none" d="M1798.0811 358.2775 L1794.2781 354.3894 L1789.278 348.4854 L1786.6271 343.3994 L1786.1826 341.163 L1786.3254 339.1312 L1787.0555 337.3038 L1788.373 335.681 L1792.7698 333.0486 L1799.5159 331.2343 L1808.6111 330.2378 L1820.0555 330.0592 L1831.2725 330.264 L1842.7001 330.8602 L1851.7448 332.1878 L1858.4065 334.247 L1862.6853 337.0378 L1863.9312 338.7075 L1864.5812 340.56 L1864.6355 342.5954 L1864.0941 344.8138 L1861.2241 349.799 L1858.2098 353.0794 L1858.1371 353.1481" clip-path="url(#clipPath2)"/>
      <path d="M1852.4854 358.8101 L1864.5017 353.8494 L1858.8435 352.4403 L1857.4242 346.7848 Z" clip-path="url(#clipPath2)" stroke="none"/>
      <text x="1809.6685" xml:space="preserve" y="321.4481" clip-path="url(#clipPath2)" font-family="sans-serif" stroke="none">Retry</text>
      <path fill="none" d="M1787.3187 408.8118 L1678.422 477.8755" clip-path="url(#clipPath2)"/>
      <path d="M1671.6661 482.1602 L1684.4778 479.9556 L1679.2665 477.3399 L1679.1219 471.5108 Z" clip-path="url(#clipPath2)" stroke="none"/>
    </g>
    <g text-rendering="geometricPrecision" stroke-miterlimit="1.45" shape-rendering="geometricPrecision" font-family="sans-serif" transform="matrix(0.8445,-0.5356,0.5356,0.8445,291.0368,153.8904)" stroke-linecap="butt">
      <text x="21.7285" xml:space="preserve" y="13.1387" clip-path="url(#clipPath3)" stroke="none">Connect Fail</text>
      <text x="2" xml:space="preserve" y="27.1074" clip-path="url(#clipPath3)" stroke="none">or Catch Exception</text>
    </g>
    <g text-rendering="geometricPrecision" stroke-miterlimit="1.45" shape-rendering="geometricPrecision" transform="matrix(1,0,0,1,-1369,-293)" stroke-linecap="butt">
      <path fill="none" d="M1824.4656 415.2528 L1824.4656 588.1856" clip-path="url(#clipPath2)"/>
      <path d="M1824.4656 596.1856 L1829.4656 584.1856 L1824.4656 587.1856 L1819.4656 584.1856 Z" clip-path="url(#clipPath2)" stroke="none"/>
    </g>
    <g text-rendering="geometricPrecision" stroke-miterlimit="1.45" shape-rendering="geometricPrecision" font-family="sans-serif" transform="matrix(0,1,-1,0,451.6744,147.3559)" stroke-linecap="butt">
      <text x="2" xml:space="preserve" y="13.1387" clip-path="url(#clipPath4)" stroke="none">Connection has been</text>
      <text x="29.0381" xml:space="preserve" y="27.1074" clip-path="url(#clipPath4)" stroke="none"> established</text>
    </g>
    <g text-rendering="geometricPrecision" stroke-miterlimit="1.45" shape-rendering="geometricPrecision" transform="matrix(1,0,0,1,-1369,-293)" stroke-linecap="butt">
      <path fill="none" d="M1860.4756 602.1824 L1868.8123 596.6255 L1877.3163 591.7029 L1884.6864 589.028 L1887.9463 588.5334 L1890.9226 588.6008 L1893.6156 589.23 L1896.025 590.4211 L1898.151 592.1741 L1899.9935 594.4891 L1902.8282 600.8047 L1904.5291 609.368 L1905.0959 620.1789 L1905.0959 630.7875 L1904.5291 641.6083 L1902.8282 650.2012 L1899.9935 656.5662 L1898.151 658.9133 L1896.025 660.7034 L1893.6156 661.9365 L1890.9226 662.6126 L1887.9463 662.7318 L1884.6864 662.2939 L1877.3163 659.7474 L1868.8123 654.973 L1867.7921 654.3108" clip-path="url(#clipPath2)"/>
      <path d="M1861.0819 649.9549 L1868.4247 660.6826 L1868.6309 654.8552 L1873.8696 652.2949 Z" clip-path="url(#clipPath2)" stroke="none"/>
    </g>
    <g text-rendering="geometricPrecision" stroke-miterlimit="1.45" shape-rendering="geometricPrecision" font-family="sans-serif" transform="matrix(0,1,-1,0,558.0899,284.827)" stroke-linecap="butt">
      <text x="2" xml:space="preserve" y="13.1387" clip-path="url(#clipPath5)" stroke="none">Data Exchange</text>
    </g>
    <g text-rendering="geometricPrecision" stroke-miterlimit="1.45" shape-rendering="geometricPrecision" transform="matrix(1,0,0,1,-1369,-293)" stroke-linecap="butt">
      <path fill="none" d="M1787.3187 602.6266 L1678.422 533.5629" clip-path="url(#clipPath2)"/>
      <path d="M1671.6661 529.2782 L1679.1219 539.9276 L1679.2665 534.0984 L1684.4778 531.4828 Z" clip-path="url(#clipPath2)" stroke="none"/>
    </g>
    <g text-rendering="geometricPrecision" stroke-miterlimit="1.45" shape-rendering="geometricPrecision" font-family="sans-serif" transform="matrix(0.8445,0.5356,-0.5356,0.8445,330.649,227.7532)" stroke-linecap="butt">
      <text x="2" xml:space="preserve" y="13.1387" clip-path="url(#clipPath6)" stroke="none">Catch Exception</text>
    </g>
    <g text-rendering="geometricPrecision" stroke-miterlimit="1.45" shape-rendering="geometricPrecision" transform="matrix(1,0,0,1,-1369,-293)" stroke-linecap="butt">
      <path fill="none" d="M1764.4656 626.1856 L1512.5728 626.1856" clip-path="url(#clipPath2)"/>
      <path d="M1504.5728 626.1856 L1516.5728 631.1856 L1513.5728 626.1856 L1516.5728 621.1856 Z" clip-path="url(#clipPath2)" stroke="none"/>
      <text x="1547.6715" xml:space="preserve" y="617.5431" clip-path="url(#clipPath2)" font-family="sans-serif" stroke="none">Timeout or Close Connection</text>
      <path fill="none" d="M1597.3723 529.2782 L1488.4756 598.3419" clip-path="url(#clipPath2)"/>
      <path d="M1481.7197 602.6266 L1494.5314 600.422 L1489.3201 597.8063 L1489.1755 591.9772 Z" clip-path="url(#clipPath2)" stroke="none"/>
    </g>
    <g text-rendering="geometricPrecision" stroke-miterlimit="1.45" shape-rendering="geometricPrecision" font-family="sans-serif" transform="matrix(0.8445,-0.5356,0.5356,0.8445,120.4449,278.357)" stroke-linecap="butt">
      <text x="2" xml:space="preserve" y="13.1387" clip-path="url(#clipPath7)" stroke="none">Fail Process</text>
    </g>
    <g text-rendering="geometricPrecision" stroke-miterlimit="1.45" shape-rendering="geometricPrecision" transform="matrix(1,0,0,1,-1369,-293)" stroke-linecap="butt">
      <path fill="none" d="M1473.6085 652.449 L1474.1575 652.9456 L1479.0618 658.0771 L1481.6716 662.5244 L1482.1162 664.4915 L1481.9872 666.2875 L1481.2845 667.9125 L1480.0083 669.3664 L1475.7352 671.7611 L1469.1677 673.4716 L1460.3059 674.4979 L1449.1497 674.84 L1438.2134 674.84 L1427.0697 674.4979 L1418.2455 673.4716 L1411.7407 671.7611 L1407.5553 669.3664 L1406.3324 667.9125 L1405.6893 666.2875 L1405.6261 664.4915 L1406.1427 662.5244 L1408.9155 658.0771 L1409.1256 657.8654 L1409.2008 657.7996" clip-path="url(#clipPath2)"/>
      <path d="M1414.8846 652.1698 L1402.8403 657.0621 L1408.4904 658.5033 L1409.8776 664.1669 Z" clip-path="url(#clipPath2)" stroke="none"/>
      <text x="1400.4189" xml:space="preserve" y="692.3254" clip-path="url(#clipPath2)" font-family="sans-serif" stroke="none">Send last data</text>
      <path fill="none" d="M1444.5728 596.1856 L1444.5728 423.2528" clip-path="url(#clipPath2)"/>
      <path d="M1444.5728 415.2528 L1439.5728 427.2528 L1444.5728 424.2528 L1449.5728 427.2528 Z" clip-path="url(#clipPath2)" stroke="none"/>
    </g>
    <g text-rendering="geometricPrecision" stroke-miterlimit="1.45" shape-rendering="geometricPrecision" font-family="sans-serif" transform="matrix(0,1,-1,0,71.5703,150.9653)" stroke-linecap="butt">
      <text x="5.0908" xml:space="preserve" y="13.1387" clip-path="url(#clipPath8)" stroke="none">Release Resources</text>
      <text x="2" xml:space="preserve" y="27.1074" clip-path="url(#clipPath8)" stroke="none">and Initialize Object</text>
    </g>
  </g>
</svg>
